<?xml version="1.0" encoding="UTF-8"?>
<svg version="1.1" xmlns="http://www.w3.org/2000/svg" width="2000" height="2000">
<path d="M0 0 C0.81317184 -0.00044186 1.62634369 -0.00088371 2.4641571 -0.00133896 C91.71188558 -0.02667771 181.13433102 11.00160229 331.7913208 55.59558105 C333.54978644 56.2024716 335.30974428 56.80503377 337.06982422 57.40722656 C368.34849445 68.14899978 398.76140711 81.21621875 428.6875 95.25 C429.9194277 95.8256962 431.1513612 96.40138 432.38330078 96.97705078 C446.87543281 103.77264038 461.05530648 110.97948722 475.03125 118.77929688 C477.69694556 120.25522979 480.37640041 121.70219921 483.0625 123.140625 C518.75587367 142.28399648 552.99156506 164.35885272 585.6875 188.25 C586.41098633 188.77658203 587.13447266 189.30316406 587.87988281 189.84570312 C603.25841835 201.04961361 618.15540422 212.74604103 632.88769531 224.78222656 C634.46060294 226.06496132 636.03848284 227.34159413 637.6171875 228.6171875 C648.67424399 237.57438757 659.38249028 246.93472169 669.80859375 256.6171875 C672.04337702 258.66093774 674.29814854 260.66462195 676.58203125 262.65234375 C688.99489538 273.48167377 700.65815195 285.11853105 712.3125 296.75 C712.92291138 297.35782318 713.53332275 297.96564636 714.16223145 298.59188843 C725.82481641 310.21545694 725.82481641 310.21545694 731.13037109 316.44335938 C734.03663283 319.81531561 737.12671568 323.0188215 740.1875 326.25 C758.14224425 345.20428671 774.73999809 365.58767135 790.6875 386.25 C791.59653076 387.4258667 791.59653076 387.4258667 792.52392578 388.62548828 C801.53636637 400.30498897 810.31938425 412.10038937 818.6875 424.25 C819.55906738 425.51215332 819.55906738 425.51215332 820.44824219 426.79980469 C841.07663317 456.71693984 860.2562969 487.36126705 877.6875 519.25 C878.28240234 520.33152344 878.87730469 521.41304687 879.49023438 522.52734375 C907.02257252 572.67657603 929.30257417 625.10726535 947.6875 679.25 C948.04231445 680.2928717 948.04231445 680.2928717 948.40429688 681.35681152 C956.11768875 704.07037318 962.78504257 727.00121199 968.6875 750.25 C968.88279297 751.01914734 969.07808594 751.78829468 969.27929688 752.58074951 C981.58108776 801.23234006 990.05139295 850.68598323 995 900.625 C995.07545044 901.37314972 995.15090088 902.12129944 995.2286377 902.89212036 C995.8014972 908.67204148 996.26717892 914.45709035 996.6875 920.25 C996.77363556 921.43697479 996.85977112 922.62394958 996.94851685 923.84689331 C998.59365714 947.33797061 999.0538827 970.76404837 999.00555801 994.30844116 C998.99990166 997.11122698 998.99709128 999.91400672 998.99447632 1002.71679688 C998.95779543 1029.78323983 998.598928 1056.72097037 995.94073486 1083.67889404 C995.67592841 1086.36748688 995.42137174 1089.05693796 995.16748047 1091.74658203 C991.32716534 1131.89744511 985.34004137 1171.84843871 976.6875 1211.25 C976.44480377 1212.35776794 976.44480377 1212.35776794 976.19720459 1213.48791504 C967.85547055 1251.4067378 957.08622662 1288.59914821 944.37054443 1325.27508545 C943.72001177 1327.15599737 943.07589996 1329.03912638 942.43212891 1330.92236328 C932.23582119 1360.71059478 920.28457846 1389.85635559 906.6875 1418.25 C905.57806719 1420.58981634 904.46869419 1422.92966104 903.359375 1425.26953125 C869.13010144 1497.21754106 826.73195899 1564.89419175 776.12744141 1626.49414062 C774.84384299 1628.05935592 773.56786928 1629.630817 772.29296875 1631.203125 C763.87294861 1641.5802309 755.19122024 1651.72589182 746.13671875 1661.5546875 C744.17628858 1663.71209869 742.25233205 1665.89037542 740.33984375 1668.08984375 C736.82665922 1672.11543656 733.22005233 1676.04301924 729.5625 1679.9375 C728.91941895 1680.62303955 728.27633789 1681.3085791 727.61376953 1682.01489258 C721.44039283 1688.5649165 715.09132777 1694.92644305 708.6875 1701.25 C705.41161835 1704.51982082 702.14661711 1707.8001903 698.88671875 1711.0859375 C697.04955135 1712.93236349 695.21230955 1714.77871546 693.375 1716.625 C692.46298828 1717.54539062 691.55097656 1718.46578125 690.61132812 1719.4140625 C686.03177889 1724.01002589 681.41341908 1728.4770831 676.48608398 1732.69873047 C673.70802392 1735.09479313 671.05012847 1737.61545662 668.375 1740.125 C663.50164451 1744.66348524 658.48446023 1748.94348797 653.2890625 1753.11328125 C650.73763271 1755.20882494 648.30423227 1757.38963155 645.875 1759.625 C641.42091271 1763.68379587 636.76347577 1767.39942748 632.00512695 1771.08886719 C628.11908675 1774.10672147 624.32223297 1777.20087988 620.5625 1780.375 C615.33818249 1784.75491403 609.97600767 1788.88866794 604.48388672 1792.92626953 C602.45420511 1794.42191151 600.4321925 1795.92763276 598.41015625 1797.43359375 C572.86427668 1816.41745117 546.66015789 1834.74165456 519.16064453 1850.79931641 C516.54433389 1852.33397759 513.94127682 1853.88948203 511.33984375 1855.44921875 C491.20571369 1867.49466848 470.55451173 1878.53308905 449.6875 1889.25 C448.73681641 1889.73968262 447.78613281 1890.22936523 446.80664062 1890.73388672 C411.58896822 1908.81364305 374.96703821 1923.97714449 337.6875 1937.25 C337.01068176 1937.49214233 336.33386353 1937.73428467 335.63653564 1937.98376465 C309.95037725 1947.16927145 284.01201224 1955.10485747 257.6875 1962.25 C255.80804687 1962.76336914 255.80804687 1962.76336914 253.890625 1963.28710938 C176.20661149 1984.2743227 95.05446771 1994.07451793 14.6875 1995.25 C13.5639209 1995.26659668 12.4403418 1995.28319336 11.28271484 1995.30029297 C3.74897625 1995.39226476 -3.77912117 1995.35910265 -11.3125 1995.25 C-12.57449219 1995.23211426 -13.83648438 1995.21422852 -15.13671875 1995.19580078 C-102.61027532 1993.81918875 -190.41367868 1981.18041841 -442.3125 1891.25 C-443.75247138 1890.55050783 -445.19255248 1889.85124142 -446.6328125 1889.15234375 C-513.13852053 1856.6448728 -575.57470093 1815.05671956 -632.45703125 1767.78515625 C-634.11988751 1766.40936149 -635.79069665 1765.04468527 -637.46875 1763.6875 C-642.78033043 1759.39049111 -647.92790543 1754.96621364 -652.98046875 1750.3671875 C-655.07073889 1748.46948831 -657.18236115 1746.60266585 -659.3125 1744.75 C-664.02796172 1740.63691263 -668.67959492 1736.4557578 -673.3125 1732.25 C-673.80379395 1731.80527344 -674.29508789 1731.36054687 -674.80126953 1730.90234375 C-681.88765702 1724.47603972 -688.77470041 1717.89457478 -695.46777344 1711.05786133 C-697.99419211 1708.49227048 -700.48216743 1706.11243784 -703.28515625 1703.83984375 C-706.35932491 1701.20994204 -708.84645973 1698.42271861 -711.46484375 1695.35546875 C-714.57290449 1691.81372512 -717.9500124 1688.54807213 -721.3125 1685.25 C-725.9574313 1680.69405206 -730.42235204 1676.07416721 -734.66894531 1671.14306641 C-737.10289324 1668.3396154 -739.64780783 1665.64476654 -742.1875 1662.9375 C-746.72598524 1658.06414451 -751.00598797 1653.04696023 -755.17578125 1647.8515625 C-757.27132494 1645.30013271 -759.45213155 1642.86673227 -761.6875 1640.4375 C-766.21023449 1635.46797891 -770.32614031 1630.23892712 -774.44140625 1624.93359375 C-776.7909156 1621.90571057 -779.18512838 1618.91749018 -781.59643555 1615.9387207 C-793.22760146 1601.54938989 -804.18319462 1586.65230582 -814.75732422 1571.47314453 C-816.4332201 1569.077429 -818.12377417 1566.69251101 -819.81640625 1564.30859375 C-826.54300247 1554.81174144 -832.97869424 1545.21969848 -839.04980469 1535.29248047 C-840.37989148 1533.1409905 -841.73671307 1531.00850168 -843.1015625 1528.87890625 C-851.21332581 1516.2159484 -858.86653239 1503.31482443 -866.3125 1490.25 C-866.92577148 1489.17588867 -867.53904297 1488.10177734 -868.17089844 1486.99511719 C-908.87325305 1415.35981708 -940.49715557 1338.28717738 -991.625 1094.75 C-991.73817566 1093.61496536 -991.73817566 1093.61496536 -991.8536377 1092.45700073 C-992.41521037 1086.72670744 -992.87893808 1080.99127891 -993.3125 1075.25 C-993.39863556 1074.14289673 -993.48477112 1073.03579346 -993.57351685 1071.8951416 C-995.36479886 1048.24744948 -995.67592339 1024.65851353 -995.63055801 1000.95016098 C-995.62491665 997.95575659 -995.62209689 994.96135787 -995.61947632 991.96694946 C-995.58450122 964.48095264 -995.37365057 937.11237875 -992.56573486 909.74438477 C-992.2972131 907.09942271 -992.04371809 904.45329804 -991.79248047 901.80664062 C-987.97587968 861.95144508 -981.87400669 822.36476268 -973.3125 783.25 C-973.06980377 782.1406308 -973.06980377 782.1406308 -972.82220459 781.0088501 C-964.48117227 743.07388802 -953.72103187 705.84544182 -940.97662354 669.16168213 C-940.35127535 667.36161501 -939.72900245 665.56048037 -939.10693359 663.75927734 C-908.53523412 575.62214115 -864.09540057 492.56563849 -771.78027344 367.04980469 C-770.49753868 365.47689706 -769.22090587 363.89901716 -767.9453125 362.3203125 C-759.22206781 351.55205806 -750.11056648 341.10655634 -740.7265625 330.91015625 C-738.76666908 328.75046786 -736.84075272 326.57028368 -734.92578125 324.37109375 C-723.4628398 311.24630149 -711.11805322 298.9515486 -698.8125 286.625 C-698.10900421 285.91891602 -697.40550842 285.21283203 -696.68069458 284.48535156 C-694.63383702 282.43256471 -692.58320574 280.38362702 -690.53125 278.3359375 C-689.92329086 277.72599945 -689.31533173 277.1160614 -688.68894958 276.48764038 C-684.97669915 272.79497338 -681.14698239 269.28939273 -677.17797852 265.87393188 C-673.97561237 263.08621579 -670.90187866 260.161564 -667.8125 257.25 C-662.72674543 252.48405323 -657.62585433 247.76284897 -652.3125 243.25 C-651.32894531 242.41082031 -650.34539062 241.57164062 -649.33203125 240.70703125 C-643.37402977 235.6362973 -637.37532834 230.61928869 -631.3046875 225.68359375 C-629.0748566 223.87003676 -626.8517812 222.04940601 -624.6328125 220.22265625 C-609.65796807 207.92658545 -594.07185874 196.51499774 -578.3125 185.25 C-577.58353516 184.72873535 -576.85457031 184.2074707 -576.10351562 183.67041016 C-511.7150148 137.71362208 -441.83292753 99.44666111 -368.3125 70.25 C-367.20471191 69.80914062 -366.09692383 69.36828125 -364.95556641 68.9140625 C-283.73739836 36.83021642 -198.78818042 16.04575595 -75.5625 2.5 C-74.79463165 2.44083405 -74.02676331 2.38166809 -73.23562622 2.32070923 C-67.93046654 1.91897152 -62.62324803 1.56894225 -57.3125 1.25 C-56.14263046 1.17791321 -56.14263046 1.17791321 -54.9491272 1.10437012 C-36.6478652 0.01428803 -18.32695253 0.0045782 0 0 Z M-245.3125 530.25 C-246.34824158 530.30327454 -247.38398315 530.35654907 -248.45111084 530.41143799 C-263.41677612 531.19149205 -278.36733838 532.14595439 -293.3125 533.25 C-294.74351044 533.3557132 -294.74351044 533.3557132 -296.20343018 533.46356201 C-396.0854013 540.914167 -495.5849172 555.96225272 -592.3125 582.25 C-593.12303833 582.46934204 -593.93357666 582.68868408 -594.76867676 582.91467285 C-616.00940655 588.67546624 -635.82530797 594.18546562 -653.3125 608.25 C-653.993125 608.76691406 -654.67375 609.28382813 -655.375 609.81640625 C-672.11570588 623.28322408 -683.77943641 645.99759644 -686.3125 667.25 C-687.92695812 696.72450072 -681.58142389 720.37103952 -662.375 743.0625 C-646.37655062 760.28436022 -623.4698908 771.42896985 -599.9453125 772.62109375 C-586.27689056 772.92941329 -574.39794109 771.00606159 -561.3125 767.25 C-555.77250844 765.68153109 -550.23062161 764.11986845 -544.6875 762.5625 C-543.92954132 762.34895874 -543.17158264 762.13541748 -542.39065552 761.91540527 C-445.17695417 734.59955851 -343.62226663 722.23891397 -181.59936523 714.74731445 C-177.98479358 714.6872473 -174.37033423 714.62225192 -170.75585938 714.55664062 C-62.46153533 712.64575166 45.79757597 720.82409413 359.45568848 784.5625 C361.69829539 785.25332547 363.94221552 785.93972257 366.18652344 786.625 C386.88787971 792.95337933 407.38445642 799.73508425 427.6875 807.25 C428.4158606 807.51878967 429.14422119 807.78757935 429.89465332 808.06451416 C467.74802491 822.05000519 504.62338448 838.1466211 540.6875 856.25 C541.82590332 856.82057129 542.96430664 857.39114258 544.13720703 857.97900391 C555.67105628 863.79280024 566.95053833 869.91539577 578.0625 876.5 C606.18612852 893.11384491 631.92744494 901.93793773 664.625 893.625 C677.22617049 889.77622621 688.40067223 883.4294568 698.6875 875.25 C699.71875 874.486875 700.75 873.72375 701.8125 872.9375 C719.29775096 856.5925915 730.84133859 833.03592449 731.92578125 809.04296875 C732.58264 781.78628939 723.1518782 758.14558446 704.75390625 738.1640625 C697.53013418 731.03235317 689.35177679 725.55881797 680.5625 720.5625 C679.52552979 719.9658252 678.48855957 719.36915039 677.42016602 718.75439453 C658.78110736 708.08864067 639.77983619 698.07592726 620.6875 688.25 C619.77693848 687.77771973 618.86637695 687.30543945 617.92822266 686.81884766 C599.97885632 677.53052025 581.57910679 669.31989148 563.0480957 661.27532959 C560.73086397 660.26883523 558.41517537 659.25885473 556.09960938 658.24853516 C530.00477472 646.88721762 503.48845601 636.81623719 476.6875 627.25 C475.84703125 626.94964844 475.0065625 626.64929688 474.140625 626.33984375 C432.94038587 611.64421705 390.98518588 599.35584116 348.6875 588.25 C347.9130957 588.04608643 347.13869141 587.84217285 346.34082031 587.63208008 C263.51032198 565.85198465 178.77131676 551.10489803 -43.3125 530.25 C-44.48123657 530.18941406 -45.64997314 530.12882813 -46.85412598 530.06640625 C-112.82156302 526.70679142 -179.34964801 526.84015101 -245.3125 530.25 Z M-592.3125 943.25 C-593.11945313 943.85972656 -593.92640625 944.46945312 -594.7578125 945.09765625 C-609.06499992 957.15157104 -617.80632662 977.06317278 -619.51513672 995.42773438 C-620.97250453 1018.60040124 -612.86877386 1038.05030007 -598.3828125 1055.5859375 C-585.29794352 1069.7939712 -564.90095922 1078.32886377 -545.875 1079.453125 C-544.699375 1079.46859375 -543.52375 1079.4840625 -542.3125 1079.5 C-541.1575 1079.52578125 -540.0025 1079.5515625 -538.8125 1079.578125 C-527.34642891 1079.11133046 -515.99020661 1075.45193895 -505.05761719 1072.20797729 C-416.98753745 1046.16253187 -325.40598263 1033.58728291 237.6875 1087.25 C238.46577148 1087.49065186 239.24404297 1087.73130371 240.04589844 1087.97924805 C289.55566217 1103.31127082 337.79339989 1122.18606446 384.6875 1144.25 C385.35843689 1144.5653772 386.02937378 1144.88075439 386.72064209 1145.20568848 C403.05487904 1152.89416495 419.18772757 1160.85422702 434.93164062 1169.70361328 C437.91140452 1171.37563884 440.90042322 1173.03031284 443.890625 1174.68359375 C452.95025494 1179.70943433 461.95711097 1184.75286952 470.74145508 1190.2487793 C488.77105538 1201.48766883 508.65349914 1206.33398618 529.90625 1202.63671875 C542.86325729 1199.49436762 555.80484993 1193.27813522 565.6875 1184.25 C566.51765625 1183.49976563 567.3478125 1182.74953125 568.203125 1181.9765625 C582.87711049 1168.04945651 591.45521169 1149.02843939 592.1628418 1128.80737305 C592.35345021 1109.03882763 586.12355371 1090.06338976 572.6875 1075.25 C571.70136719 1074.09177734 571.70136719 1074.09177734 570.6953125 1072.91015625 C558.48938818 1059.54276855 540.74335181 1051.37536083 525.14550781 1042.62890625 C522.94487928 1041.39438599 520.74915586 1040.15167232 518.5546875 1038.90625 C440.40749679 994.7847788 356.54284853 959.86294541 -83.3125 873.25 C-84.33224915 873.19886047 -85.35199829 873.14772095 -86.40264893 873.09503174 C-196.47774745 867.66545084 -306.77226537 873.51486431 -592.3125 943.25 Z M-167.46466064 1196.27606201 C-278.84817925 1197.6589443 -389.69662069 1211.81111534 -509.625 1237.1875 C-510.45249756 1237.36700195 -511.27999512 1237.54650391 -512.13256836 1237.73144531 C-531.04229924 1241.85748314 -547.20751908 1246.21991279 -561.3125 1260.25 C-561.86550781 1260.76820312 -562.41851563 1261.28640625 -562.98828125 1261.8203125 C-573.37992091 1272.52006007 -578.05654041 1288.34844842 -578.3984375 1302.91015625 C-577.65748466 1320.51753552 -570.6329239 1334.90844329 -558.3125 1347.25 C-557.67441406 1347.8996875 -557.03632812 1348.549375 -556.37890625 1349.21875 C-545.06281766 1359.9466843 -529.42023596 1364.45662859 -514.1192627 1364.39196777 C-509.28339194 1364.14736647 -504.64525343 1363.12941657 -499.921875 1362.109375 C-498.30149323 1361.77253693 -498.30149323 1361.77253693 -496.64837646 1361.42889404 C-494.35869454 1360.95201911 -492.06990639 1360.47083477 -489.78198242 1359.9855957 C-484.13481287 1358.78828926 -478.48096954 1357.62328524 -472.828125 1356.453125 C-471.11170555 1356.09664131 -471.11170555 1356.09664131 -469.36061096 1355.73295593 C-392.9536324 1339.87647489 -315.72702298 1328.23306768 -237.79241943 1323.40429688 C-235.33351591 1323.25130758 -232.87502983 1323.09252083 -230.41650391 1322.93359375 C-178.05392659 1319.62182527 -124.65205119 1319.49720228 -72.3125 1323.25 C-71.41080078 1323.31316406 -70.50910156 1323.37632813 -69.58007812 1323.44140625 C21.26406853 1329.83623231 111.22332536 1346.3299375 287.66357422 1412.81591797 C290.69857038 1414.25525007 293.7412934 1415.67718692 296.78515625 1417.09765625 C319.67338213 1427.8489866 341.94685478 1439.71801559 363.55810547 1452.84667969 C381.54121145 1463.73096801 398.37515667 1470.80574512 419.703125 1466.55859375 C432.1646083 1463.27853372 441.62700842 1457.31049158 450.6875 1448.25 C451.55181641 1447.38568359 451.55181641 1447.38568359 452.43359375 1446.50390625 C462.82487324 1435.248936 468.16548119 1419.32696235 467.890625 1404.1640625 C466.68958534 1386.93376275 460.02868925 1371.26986895 447.19580078 1359.53466797 C442.42578076 1355.47188951 437.07950367 1352.38617746 431.6875 1349.25 C429.89134789 1348.18065977 428.09582023 1347.11027023 426.30078125 1346.0390625 C412.29866829 1337.73367092 398.07482841 1329.86576435 383.6875 1322.25 C382.61628906 1321.6828125 381.54507813 1321.115625 380.44140625 1320.53125 C296.13228571 1276.04304505 206.17027804 1243.9514435 -137.3125 1196.25 C-138.54726074 1196.23340332 -139.78202148 1196.21680664 -141.05419922 1196.19970703 C-149.86010533 1196.09942889 -158.65919372 1196.16943048 -167.46466064 1196.27606201 Z " fill="#1DD75F" transform="translate(998.3125,2.75)"/>
</svg>
